<svg width="24" height="24" viewBox="0 0 24 24" fill="none" xmlns="http://www.w3.org/2000/svg">
<path d="M6.75 1V3.25M17.25 1V3.25M3 16.75V5.5C3 4.90326 3.23705 4.33097 3.65901 3.90901C4.08097 3.48705 4.65326 3.25 5.25 3.25H18.75C19.3467 3.25 19.919 3.48705 20.341 3.90901C20.7629 4.33097 21 4.90326 21 5.5V16.75M3 16.75C3 17.3467 3.23705 17.919 3.65901 18.341C4.08097 18.7629 4.65326 19 5.25 19H18.75C19.3467 19 19.919 18.7629 20.341 18.341C20.7629 17.919 21 17.3467 21 16.75M3 16.75V9.25C3 8.65326 3.23705 8.08097 3.65901 7.65901C4.08097 7.23705 4.65326 7 5.25 7H18.75C19.3467 7 19.919 7.23705 20.341 7.65901C20.7629 8.08097 21 8.65326 21 9.25V16.75M12 10.75H12.008V10.758H12V10.75ZM12 13H12.008V13.008H12V13ZM12 15.25H12.008V15.258H12V15.25ZM9.75 13H9.758V13.008H9.75V13ZM9.75 15.25H9.758V15.258H9.75V15.25ZM7.5 13H7.508V13.008H7.5V13ZM7.5 15.25H7.508V15.258H7.5V15.25ZM14.25 10.75H14.258V10.758H14.25V10.75ZM14.25 13H14.258V13.008H14.25V13ZM14.25 15.25H14.258V15.258H14.25V15.25ZM16.5 10.75H16.508V10.758H16.5V10.75ZM16.5 13H16.508V13.008H16.5V13Z" stroke="black" stroke-width="1.5" stroke-linecap="round" stroke-linejoin="round"/>
</svg>
