<svg width="15" height="15" viewBox="0 0 15 15" fill="none" xmlns="http://www.w3.org/2000/svg">
<path d="M10.9794 12.761C10.9794 12.761 10.5278 12.2215 10.1514 11.7448C11.7949 11.2807 12.4222 10.2518 12.4222 10.2518C11.9079 10.5905 11.4185 10.8289 10.9794 10.9921C10.3521 11.2555 9.74997 11.4312 9.1602 11.5316C7.95579 11.7575 6.85166 11.6948 5.91086 11.5191C5.19579 11.3811 4.581 11.1804 4.06663 10.9796C3.77801 10.8666 3.46435 10.7286 3.15069 10.5529C3.11299 10.5279 3.07545 10.5152 3.03775 10.4902C3.01272 10.4777 3.00004 10.4652 2.98753 10.4525C2.76163 10.327 2.63617 10.2393 2.63617 10.2393C2.63617 10.2393 3.23845 11.243 4.83175 11.7196C4.45537 12.1965 3.99122 12.7609 3.99122 12.7609C1.21871 12.6731 0.164795 10.8541 0.164795 10.8541C0.164795 6.81427 1.97148 3.53975 1.97148 3.53975C3.77817 2.18485 5.49693 2.22239 5.49693 2.22239L5.6224 2.37288C3.36408 3.02522 2.32284 4.0164 2.32284 4.0164C2.32284 4.0164 2.59879 3.86592 3.0631 3.65253C4.40548 3.06293 5.47191 2.89976 5.91103 2.86205C5.98627 2.84954 6.049 2.83703 6.12425 2.83703C6.88953 2.73659 7.75525 2.71157 8.65851 2.812C9.8504 2.94998 11.1301 3.30134 12.4349 4.0164C12.4349 4.0164 11.4437 3.07544 9.31102 2.4231L9.4867 2.22239C9.4867 2.22239 11.2055 2.18469 13.0121 3.53975C13.0121 3.53975 14.8188 6.81427 14.8188 10.8541C14.8185 10.8541 13.7521 12.6731 10.9794 12.761Z" fill="#7289DA"/>
<path d="M5.14549 6.9021C4.43042 6.9021 3.86584 7.52941 3.86584 8.2947C3.86584 9.05998 4.44294 9.68729 5.14549 9.68729C5.86056 9.68729 6.42514 9.05998 6.42514 8.2947C6.43765 7.52941 5.86056 6.9021 5.14549 6.9021ZM9.72469 6.9021C9.00963 6.9021 8.44505 7.52941 8.44505 8.2947C8.44505 9.05998 9.02214 9.68729 9.72469 9.68729C10.4398 9.68729 11.0043 9.05998 11.0043 8.2947C11.0043 7.52941 10.4399 6.9021 9.72469 6.9021Z" fill="white"/>
</svg>
