<svg width="14" height="14" viewBox="0 0 14 14" fill="none" xmlns="http://www.w3.org/2000/svg">
<path d="M4.42628 12.6111C9.64528 12.6111 12.4999 8.28712 12.4999 4.53752C12.4999 4.41474 12.4999 4.29242 12.4916 4.17071C13.047 3.76901 13.5263 3.27173 13.9072 2.70191C13.3893 2.93134 12.84 3.08194 12.2774 3.14833C12.8698 2.79365 13.3131 2.23598 13.5249 1.57888C12.9678 1.90943 12.3585 2.14239 11.7231 2.26764C10.6485 1.12493 8.85095 1.06976 7.70825 2.14439C6.97124 2.83745 6.65867 3.87013 6.88733 4.85562C4.60608 4.74114 2.48033 3.66359 1.0395 1.89083C0.286359 3.18736 0.671 4.8461 1.91805 5.67869C1.46641 5.66532 1.02475 5.54346 0.630123 5.32355C0.630123 5.33523 0.630123 5.34737 0.630123 5.35951C0.63043 6.71029 1.58258 7.87359 2.90662 8.14113C2.48894 8.255 2.05051 8.27175 1.6253 8.18984C1.99703 9.34576 3.06229 10.1376 4.2763 10.1604C3.27144 10.9501 2.03023 11.3787 0.752292 11.3775C0.526548 11.377 0.301112 11.3633 0.0769043 11.3364C1.37451 12.1692 2.88449 12.6108 4.42628 12.6088" fill="#1DA1F2"/>
</svg>
