<svg width="17" height="17" viewBox="0 0 17 17" fill="none" xmlns="http://www.w3.org/2000/svg">
<path d="M8.5 14.5C9.83 14.4999 11.1223 14.0581 12.174 13.244C13.2257 12.4299 13.9773 11.2895 14.3107 10.002M8.5 14.5C7.17001 14.4999 5.87769 14.0581 4.82598 13.244C3.77427 12.4299 3.02272 11.2895 2.68934 10.002M8.5 14.5C10.1567 14.5 11.5 11.8133 11.5 8.5C11.5 5.18667 10.1567 2.5 8.5 2.5M8.5 14.5C6.84334 14.5 5.5 11.8133 5.5 8.5C5.5 5.18667 6.84334 2.5 8.5 2.5M14.3107 10.002C14.434 9.522 14.5 9.01867 14.5 8.5C14.5016 7.46807 14.2359 6.45333 13.7287 5.55467M14.3107 10.002C12.5328 10.9876 10.5328 11.5032 8.5 11.5C6.392 11.5 4.41134 10.9567 2.68934 10.002M2.68934 10.002C2.56317 9.51132 2.49955 9.00665 2.5 8.5C2.5 7.43 2.78 6.42467 3.27134 5.55467M8.5 2.5C9.56416 2.49956 10.6093 2.78224 11.5281 3.31904C12.447 3.85585 13.2065 4.62744 13.7287 5.55467M8.5 2.5C7.43584 2.49956 6.39072 2.78224 5.47187 3.31904C4.55303 3.85585 3.79354 4.62744 3.27134 5.55467M13.7287 5.55467C12.2771 6.81195 10.4204 7.50276 8.5 7.5C6.50134 7.5 4.67334 6.76667 3.27134 5.55467" stroke="black" stroke-linecap="round" stroke-linejoin="round"/>
</svg>
